<svg preserveAspectRatio="none" width="100%" height="100%" overflow="visible" style="display: block;" viewBox="0 0 13.7188 11.1641" fill="none" xmlns="http://www.w3.org/2000/svg">
<g id="Image" clip-path="url(#clip0_0_12)">
<path id="Shape" d="M4.77912 0.612549C5.12523 0.266573 5.71652 0.511464 5.71664 1.00082V3.65628H6.16636C9.74734 3.65628 12.5068 5.61677 13.1884 8.63258C13.277 9.02486 13.2814 9.29176 13.2518 9.45204C13.2402 9.51476 13.2239 9.54992 13.2138 9.56911C13.1906 9.56463 13.1487 9.55302 13.085 9.51643C12.9482 9.43784 12.7662 9.27842 12.5641 9.01207C11.6515 7.80922 10.0202 7.04318 8.62574 6.8639C7.92758 6.7742 7.22684 6.82286 6.67951 7.09316C6.09852 7.38026 5.71664 7.9094 5.71664 8.65405V10.1632C5.71652 10.6526 5.12523 10.8974 4.77912 10.5515L0.904224 6.67659C0.299737 6.07194 0.299737 5.0921 0.904224 4.48745L4.77912 0.612549Z" fill="var(--fill-0, #888888)" stroke="var(--stroke-0, #888888)" stroke-width="0.899071" stroke-linecap="round"/>
</g>
<defs>
<clipPath id="clip0_0_12">
<rect width="13.7188" height="11.1641" fill="white"/>
</clipPath>
</defs>
</svg>
